<?xml version="1.0" standalone="no"?>
<!DOCTYPE svg PUBLIC "-//W3C//DTD SVG 20010904//EN"
 "http://www.w3.org/TR/2001/REC-SVG-20010904/DTD/svg10.dtd">
<svg version="1.0" xmlns="http://www.w3.org/2000/svg"
 width="200.000000pt" height="200.000000pt" viewBox="0 0 200.000000 200.000000"
 preserveAspectRatio="xMidYMid meet">

<g transform="translate(0.000000,200.000000) scale(0.100000,-0.100000)"
fill="#000000" stroke="none">
<path d="M909 1497 c-104 -30 -190 -104 -238 -206 -22 -47 -26 -70 -26 -141 0
-72 4 -94 28 -146 36 -77 104 -145 182 -181 51 -24 73 -28 145 -28 72 0 94 4
145 28 78 36 146 104 182 181 24 52 28 74 28 146 0 76 -4 93 -32 151 -60 121
-170 196 -300 205 -40 2 -87 -2 -114 -9z m227 -52 c159 -72 234 -268 163 -425
l-25 -54 -24 49 c-16 31 -38 57 -58 69 -40 23 -50 15 -28 -19 19 -29 15 -55
-9 -55 -21 0 -30 27 -15 44 15 19 1 47 -35 70 -30 20 -31 30 -4 91 26 59 23
153 -6 185 -49 54 -159 46 -195 -13 -27 -43 -26 -125 0 -177 27 -53 25 -68
-10 -88 -36 -21 -37 -26 -5 -64 14 -16 25 -37 25 -46 0 -12 -6 -9 -17 10 -25
40 -44 43 -70 13 -27 -31 -31 -91 -8 -98 11 -4 10 -4 -2 -3 -37 3 -27 92 14
131 34 30 25 42 -16 21 -30 -16 -57 -55 -71 -106 -7 -23 -10 -20 -36 35 -57
121 -31 268 65 364 99 99 240 124 367 66z m-220 -501 c-3 -8 -16 -14 -28 -13
l-23 0 23 9 c13 6 22 19 23 32 1 18 2 19 6 5 3 -10 2 -25 -1 -33z"/>
<path d="M1140 1040 c0 -5 5 -10 10 -10 6 0 10 5 10 10 0 6 -4 10 -10 10 -5 0
-10 -4 -10 -10z"/>
<path d="M612 648 c7 -19 38 -22 38 -4 0 10 -9 16 -21 16 -12 0 -19 -5 -17
-12z"/>
<path d="M680 575 l0 -75 48 0 c60 0 86 24 86 77 0 48 -31 73 -90 73 l-44 0 0
-75z m88 33 c27 -27 3 -88 -34 -88 -10 0 -14 13 -14 50 0 41 3 50 18 50 10 0
23 -5 30 -12z"/>
<path d="M1103 643 c-14 -5 -18 -110 -5 -129 11 -17 45 -25 62 -14 11 7 9 11
-13 19 -34 13 -39 60 -7 68 26 7 26 23 1 23 -11 0 -21 8 -23 18 -2 11 -9 17
-15 15z"/>
<path d="M873 609 c-44 -16 -41 -93 4 -110 38 -14 73 12 73 55 0 46 -34 71
-77 55z m42 -54 c0 -33 -28 -47 -39 -19 -10 25 3 56 22 52 11 -2 17 -13 17
-33z"/>
<path d="M1009 606 c-37 -18 -39 -79 -4 -102 20 -13 31 -14 48 -6 24 11 22 12
-31 28 -8 2 -12 15 -10 31 2 20 9 29 26 31 12 2 22 7 22 12 0 15 -27 18 -51 6z"/>
<path d="M620 555 c0 -42 3 -55 15 -55 12 0 15 13 15 55 0 42 -3 55 -15 55
-12 0 -15 -13 -15 -55z"/>
<path d="M1189 586 c-27 -58 27 -114 77 -81 17 11 24 25 24 48 0 42 -15 57
-57 57 -26 0 -36 -6 -44 -24z m66 -32 c0 -19 -6 -30 -17 -32 -21 -4 -34 34
-17 54 18 22 34 11 34 -22z"/>
<path d="M1320 555 c0 -42 3 -55 15 -55 11 0 15 11 15 41 0 32 4 42 20 46 32
9 23 23 -15 23 l-35 0 0 -55z"/>
</g>
</svg>
